<svg width="16" height="17" viewBox="0 0 16 17" fill="none" xmlns="http://www.w3.org/2000/svg">
<path d="M15 4.49301C14.5174 4.70353 13.9988 4.84578 13.4537 4.91007C14.0098 4.58234 14.4364 4.06229 14.6376 3.44324C14.1173 3.74708 13.541 3.96784 12.9277 4.08619C12.4364 3.57183 11.7369 3.24979 10.9624 3.24979C9.47566 3.24979 8.26987 4.43668 8.26987 5.90124C8.26987 6.10835 8.29415 6.30977 8.33923 6.50437C6.10048 6.39341 4.11722 5.33795 2.78888 3.73455C2.55767 4.12716 2.42472 4.58234 2.42472 5.06711C2.42472 5.98659 2.90045 6.79852 3.62242 7.27362C3.1808 7.2594 2.76576 7.14048 2.40275 6.94191V6.97605C2.40275 8.26024 3.33051 9.33164 4.56289 9.57516C4.3363 9.63547 4.09873 9.66733 3.85364 9.66733C3.68022 9.66733 3.51086 9.6514 3.34669 9.62068C3.68947 10.6733 4.6837 11.4403 5.86233 11.4607C4.94035 12.172 3.77907 12.5959 2.51778 12.5959C2.30044 12.5959 2.08599 12.5834 1.875 12.5589C3.06693 13.3117 4.48197 13.7498 6.00221 13.7498C10.956 13.7498 13.6641 9.71114 13.6641 6.20849C13.6641 6.09469 13.6613 5.97976 13.6561 5.86597C14.182 5.49157 14.6387 5.02557 14.9989 4.49472L15 4.49301Z" fill="#858699"/>
</svg>
